<?xml version="1.0" standalone="no"?>
<!DOCTYPE svg PUBLIC "-//W3C//DTD SVG 20010904//EN"
 "http://www.w3.org/TR/2001/REC-SVG-20010904/DTD/svg10.dtd">
<svg version="1.0" xmlns="http://www.w3.org/2000/svg"
 width="200.000000pt" height="200.000000pt" viewBox="0 0 200.000000 200.000000"
 preserveAspectRatio="xMidYMid meet">
<metadata>
Created by potrace 1.14, written by Peter Selinger 2001-2017
</metadata>
<g transform="translate(0.000000,200.000000) scale(0.100000,-0.100000)"
fill="#000000" stroke="none">
<path d="M3 1931 c11 -97 93 -216 194 -284 l51 -34 -25 -29 c-52 -61 -59 -70
-84 -110 -42 -63 -79 -142 -110 -229 l-28 -80 -1 -582 0 -583 864 0 864 0 6
48 c3 26 9 67 11 92 6 51 9 350 4 354 -7 5 -131 71 -244 131 -60 32 -163 87
-228 122 -65 34 -120 63 -123 63 -3 0 -20 10 -39 23 l-33 23 411 -1 c227 -1
419 2 428 6 17 8 17 45 4 148 -24 177 -154 375 -321 488 -48 32 -51 36 -44 66
8 41 -10 124 -39 170 -32 52 -105 113 -175 147 -105 50 -176 59 -406 55 -113
-2 -218 -6 -235 -9 -16 -3 -59 -8 -95 -11 -36 -4 -67 -8 -70 -10 -3 -2 -29 -6
-59 -10 -30 -4 -63 -9 -75 -11 -12 -3 -67 -8 -122 -11 -123 -7 -185 11 -247
71 l-40 39 6 -52z"/>
</g>
</svg>
